
      <svg xmlns="http://www.w3.org/2000/svg" id="mute"  height="30" width="30" viewBox="0 0 24 24">
        <path d="M3.7070312 2.2929688L2.2929688 3.7070312L6.2929688 7.7070312L5 9L3 9C1.895 9 1 9.895 1 11L1 13C1 14.105 1.895 15 3 15L5 15L11 21L11 12.414062L20.292969 21.707031L21.707031 20.292969L3.7070312 2.2929688 z M 11 3L9.1191406 4.8808594L11 6.7617188L11 3 z M 19.484375 3.515625L18.070312 4.9296875C19.959313 6.8176875 21 9.329 21 12C21 13.381 20.7175 14.716266 20.1875 15.947266L21.6875 17.449219C22.5405 15.782219 23 13.927 23 12C23 8.795 21.751375 5.781625 19.484375 3.515625 z M 16.65625 6.34375L15.242188 7.7578125C16.588187 9.1038125 17.134641 10.932406 16.931641 12.691406L18.628906 14.390625C19.484906 11.640625 18.83025 8.51775 16.65625 6.34375 z" fill="#FFFFFF" />
      </svg>