<svg xmlns="http://www.w3.org/2000/svg" viewBox="0 0 100 100"><path fill="#fff" d="M20.3 55.1A.9.9 0 1 0 20.3 56.9.9.9 0 1 0 20.3 55.1zM79.4 30.400000000000002A.7.7 0 1 0 79.4 31.8.7.7 0 1 0 79.4 30.400000000000002z"/><path fill="#f1bc19" d="M76.7 11.2A.9.9 0 1 0 76.7 13 .9.9 0 1 0 76.7 11.2zM20.8 62.800000000000004A.9.9 0 1 0 20.8 64.60000000000001.9.9 0 1 0 20.8 62.800000000000004z"/><path fill="#c0e5e4" d="M49.6 11.899999999999999A37.4 37.4 0 1 0 49.6 86.69999999999999A37.4 37.4 0 1 0 49.6 11.899999999999999Z"/><path fill="#f1bc19" d="M82.2 10.2A4 4 0 1 0 82.2 18.2A4 4 0 1 0 82.2 10.2Z"/><path fill="#77cbd2" d="M86.2 21.400000000000002A1.9 1.9 0 1 0 86.2 25.2A1.9 1.9 0 1 0 86.2 21.400000000000002Z"/><path fill="#fbcd59" d="M77.2 73.8A1.9 1.9 0 1 0 77.2 77.60000000000001 1.9 1.9 0 1 0 77.2 73.8zM14 58.8A4 4 0 1 0 14 66.8 4 4 0 1 0 14 58.8z"/><path fill="#77cbd2" d="M24.3 85A1.9 1.9 0 1 0 24.3 88.80000000000001A1.9 1.9 0 1 0 24.3 85Z"/><path fill="#fff" d="M75.9 27.8A1.8 1.8 0 1 0 75.9 31.400000000000002 1.8 1.8 0 1 0 75.9 27.8zM17.8 48.2A2.5 2.5 0 1 0 17.8 53.2 2.5 2.5 0 1 0 17.8 48.2z"/><path fill="#fabf82" d="M68.1,70.5c-0.4-2.1-1.3-3.4-3.3-4c-0.1,0-0.2-0.1-0.3-0.1c-0.2-0.1-0.4-0.1-0.6-0.2c-1.2-0.5-8.7-3.3-8.7-3.3 c-0.6-0.2-1-0.6-1.2-1.1c-0.4-0.8-0.2-2.9-0.2-2.9s-3.1,1.1-5,1.4c-1.9,0.2-6-2.3-6-2.3s-0.1,3-0.2,3.7c-0.1,0.5-0.7,1-1.3,1.1 L34,65.5c-0.8,0.2-1.5,0.5-2.2,0.9c-1.8,1.1-2.7,2.8-3.2,4.2c0,0-0.5,3.3-0.5,3.4c0,0.5-0.1,1-0.1,1.5c7.8,5.3,14,6.7,24.7,6.3 c4.9-0.2,12.1-2.6,15.9-4.5C68.5,73,68.1,70.5,68.1,70.5z"/><path fill="#88cdd7" d="M64.8,66.5c-0.1,0-0.2-0.1-0.3-0.1c-0.2-0.1-0.4-0.1-0.6-0.2c-0.8-0.3-3.9-1.5-6.2-2.3l-0.1,0 C55,65.1,51.5,67,48.2,67c-3.3,0-6.6-1.8-9.4-3.2l-0.3,0.1L34,65.5c-0.8,0.2-1.5,0.5-2.2,0.9c-1.8,1.1-2.7,2.8-3.2,4.2 c0,0-0.5,3.3-0.5,3.4c0,0.5-0.1,5.4-0.1,6c7.8,5.3,14,6.7,24.7,6.3c4.9-0.2,12.1-2.6,15.9-4.5c-0.2-4.2-0.6-11.2-0.6-11.2 C67.7,68.4,66.8,67.2,64.8,66.5z"/><path fill="#be7841" d="M37.5,46.4c-0.2-0.3-3.8-8.6-1-14.1c1.2-2.3,3.3-3.8,6.2-4.5c1.7-1.2,3.8-1.8,5.8-1.8c1.7,0,3.4,0.4,4.9,1.3 c0.8,0.5,1.5,0.9,2.1,1.2c1.8,1,2.4,1.4,3.4,1.4c0.1,0,0.2,0,0.4,0l0.1,0c0.2,0,0.3,0,0.4,0c0.9,0,1.2,0.5,1.2,0.9 c0.1,1-0.2,1.9-0.6,2.7c-0.3,0.7-0.5,1.3-0.4,1.9c1.8,6-1,10.9-1.1,11.2L58.2,48l0-1.8c0,0,0-4.7-1.1-7.7c-1.4,0.8-3.1,1.2-5,1.2 c-3.2,0-6.8-1.2-10.4-3.4c-3.2,2.5-3.2,9.9-3.2,9.9l0,2.3L37.5,46.4z"/><path fill="#472b29" d="M48.6,26.4c1.5,0,3.1,0.4,4.7,1.3c3.5,2,4.2,2.6,5.8,2.6c0.1,0,0.3,0,0.4,0c0.2,0,0.4,0,0.5,0 c0.4,0,0.7,0.1,0.7,0.5c0.2,1.8-1.3,3.3-0.9,4.7c1.8,5.9-1.1,10.8-1.1,10.8s0-5.4-1.4-8.4c-1.4,0.9-3.2,1.4-5.3,1.4 c-3.1,0-6.7-1.1-10.4-3.5C37.9,38.1,38,46.1,38,46.1s-7-15.4,4.9-18C44.5,27.1,46.4,26.4,48.6,26.4 M48.6,25.4v1V25.4 c-2.1,0-4.2,0.7-6,1.9C39.4,28,37.3,29.6,36,32c-2.9,5.8,0.9,14.2,1,14.6l1.9,4.2l0-4.7c0-2,0.5-7.2,2.7-9.3 c3.5,2.2,7.1,3.3,10.4,3.3c1.7,0,3.4-0.3,4.7-1c0.9,2.9,0.9,7,0.9,7l0,3.7l1.9-3.2c0.1-0.2,3.1-5.3,1.2-11.6 c-0.1-0.4,0.1-0.9,0.4-1.6c0.3-0.8,0.7-1.8,0.6-3c0-0.3-0.3-1.3-1.7-1.3c-0.2,0-0.3,0-0.5,0l-0.1,0c-0.1,0-0.2,0-0.3,0 c-0.9,0-1.4-0.3-3.2-1.3c-0.6-0.3-1.2-0.7-2.1-1.2C52.1,25.8,50.3,25.4,48.6,25.4L48.6,25.4z"/><path fill="#00a5a5" d="M34.9 84.2c-.2 0-.3-.1-.3-.3v-4c0-.2.1-.3.3-.3s.3.1.3.3v4C35.2 84.1 35.1 84.2 34.9 84.2zM61.2 84.9c-.2 0-.3-.1-.3-.3V80c0-.2.1-.3.3-.3s.3.1.3.3v4.6C61.5 84.8 61.4 84.9 61.2 84.9z"/><path fill="#fddbbc" d="M60.4,44c-0.1,0-0.2,0-0.4,0c-1,0-0.9,0.3-0.8-0.3c0.1-1.1-0.4-5.3-0.4-5.6c0-4.5-4.7-8.1-10.5-8.3v0 c0,0-0.1,0-0.1,0c0,0-0.1,0-0.1,0v0c-5.8,0.2-10.5,3.8-10.5,8.3c0,0.2-0.1,4.5-0.1,5.6c0,0.6-0.2,0.2-1.2,0.3c-0.1,0-0.2,0-0.4,0 c-1.1,0.1-1.9,0.7-2.1,1.6c0.1,0.1,0.6,3.7,1.4,5.2c0.4,0.8,1.1,0.9,1.8,1.4c0.4,0.3,0.5,0.6,0.6,1c0.4,1.6,1.5,2.9,2.7,4.1 c0.6,0.6,4.5,4.7,7.9,4.5c3.4-0.1,7.3-4,7.9-4.5c1.2-1.2,2.3-2.5,2.7-4.1c0.1-0.4,0.2-0.8,0.6-1c0.7-0.5,1.4-0.6,1.8-1.4 c0.8-1.4,1.3-5.1,1.4-5.2C62.3,44.7,61.5,44.1,60.4,44z"/><path fill="#512c2b" d="M48.3 51.1c.7 0 1.3-.3 1.8-.8 0 0 0-.1 0-.2l0 0c0 0-.1 0-.2 0-.3.4-.9.6-1.6.6-.7 0-1.2-.2-1.6-.6 0 0-.1 0-.1 0 0 0-.1 0-.1 0 0 0-.1.1 0 .2C46.9 50.8 47.6 51.1 48.3 51.1zM46.1 41.8l.4-.8c-1.8-.4-3.9-.4-5.7.2l.5.8C42.8 41.5 44.6 41.5 46.1 41.8zM55.3 41.8l.4-.8c-1.8-.4-3.9-.4-5.7.2l.5.8C52 41.5 53.8 41.5 55.3 41.8zM43.5 43c-.4 0-.8.3-1 .7.1 0 .1 0 .2 0 .4 0 .7.3.7.7 0 .4-.3.7-.7.7-.1 0-.2 0-.3-.1.2.7.6 1.1 1.2 1.1.7 0 1.3-.7 1.3-1.6C44.7 43.7 44.1 43 43.5 43zM53 43c-.4 0-.7.2-.9.5.1 0 .1 0 .2 0 .4 0 .7.3.7.7 0 .4-.3.7-.7.7-.2 0-.4-.1-.5-.3 0 .9.6 1.6 1.3 1.6.7 0 1.3-.7 1.3-1.6C54.3 43.7 53.7 43 53 43zM53.6 52.9c.1 0 .1-.1 0-.2l0 0c0-.1-.1-.1-.2 0-1.1.9-3 1.4-5.1 1.4s-4-.5-5.1-1.4c0 0 0 0-.1 0 0 0-.1 0-.1 0 0 .1 0 .1 0 .2 1.3 1 3.3 1.7 5.3 1.7C50.3 54.6 52.3 54 53.6 52.9zM49.7 58.2c.1 0 .1-.1.1-.2 0-.1-.1-.2-.1-.2h-2.6C47 57.9 47 57.9 47 58c0 .1.1.2.1.2H49.7z"/><path fill="#472b29" d="M49.3,87c-8.9,0-14.7-1.8-21.5-6.4c-0.1-0.1-0.2-0.3-0.2-0.5c0-0.1,0-0.5,0-1c0-2.2,0.1-6.7,0.6-8.5 c0.7-2.4,1.6-3.4,3.4-4.5c0.7-0.4,1.5-0.7,2.3-1l7.1-2.6c0.5-0.1,0.9-0.5,1-0.8c0-0.1,0.1-0.6,0.2-2c-1-0.7-1.9-1.4-2.1-1.6 c-1.6-1.5-2.5-2.9-2.8-4.4c-0.1-0.4-0.2-0.6-0.4-0.8c-0.2-0.2-0.4-0.3-0.6-0.4c-0.5-0.3-1-0.6-1.3-1.2c-0.8-1.6-1.5-4.5-1.5-5.5 c0,0,0-0.1,0-0.1c0.2-1.1,1.3-1.9,2.6-2c0.1,0,0.3,0,0.4,0c0.3,0,0.5,0,0.7,0c0-1.2,0-3.8,0.1-4.9c0-0.3,0-0.5,0-0.5 c0-4.7,4.8-8.6,10.8-8.9c0,0,0.1,0,0.1,0l0.1,0.5l0-0.5c0,0,0.1,0,0.1,0l0,0c6.1,0.2,10.9,4.1,10.9,8.9c0,0.1,0,0.4,0.1,0.8 c0.2,1.8,0.4,3.8,0.3,4.6l0,0.1c0.1,0,0.2,0,0.2,0l0.1,0c0.1,0,0.2,0,0.4,0c1.3,0.1,2.3,0.9,2.6,2c0,0,0,0.1,0,0.1 c0,1.1-0.6,4-1.5,5.5c-0.4,0.7-0.9,1-1.3,1.2c-0.2,0.1-0.4,0.2-0.6,0.4c-0.2,0.2-0.3,0.3-0.4,0.8c-0.4,1.5-1.3,2.9-2.8,4.4 c-0.3,0.2-1.2,1-2.2,1.8c0,0.9,0.1,1.5,0.2,1.8c0.1,0.3,0.4,0.7,0.9,0.8c0.4,0.1,7.5,2.8,8.7,3.3c0.2,0.1,0.4,0.2,0.6,0.2 c0.1,0,0.2,0.1,0.3,0.1c2.1,0.6,3.2,2,3.7,4.4c0,0,0,0,0,0.1c0,0,0.4,6.9,0.6,11.2c0,0.2-0.1,0.4-0.3,0.5c-4,2-11.3,4.4-16.1,4.6 C51.6,86.9,50.4,87,49.3,87z M28.6,79.9c7.4,5,13.5,6.5,24.2,6c4.5-0.2,11.4-2.4,15.4-4.3c-0.2-4.1-0.5-10.3-0.5-10.8 c-0.4-2.1-1.2-3.1-3-3.6c-0.1,0-0.2-0.1-0.4-0.1c-0.2-0.1-0.4-0.1-0.6-0.2c-1.2-0.5-8.6-3.2-8.7-3.3c-0.6-0.2-1.2-0.6-1.5-1.3 c-0.2-0.5-0.3-1.3-0.3-2.5c0-0.2,0.1-0.3,0.2-0.4c1.2-0.9,2.1-1.6,2.3-1.8c1.4-1.4,2.2-2.6,2.5-3.9c0.1-0.5,0.2-0.9,0.8-1.3 c0.2-0.2,0.5-0.3,0.7-0.5c0.4-0.2,0.7-0.4,1-0.8c0.8-1.4,1.3-4,1.3-4.9c-0.2-0.6-0.8-1.1-1.6-1.2c-0.1,0-0.2,0-0.3,0l-0.2,0 c-0.6,0-0.8,0-1-0.3c-0.2-0.2-0.2-0.5-0.2-0.7l0-0.1c0.1-0.7-0.2-3.2-0.3-4.4c-0.1-0.5-0.1-0.8-0.1-0.9c0-4.2-4.4-7.7-10-7.9 c0,0,0,0-0.1,0c0,0,0,0,0,0c0,0,0,0,0,0l0,0c0,0-0.1,0-0.1,0c-5.6,0.2-10,3.7-10,7.9c0,0,0,0.2,0,0.5c0,1.2-0.1,4.2-0.1,5.1 c0,0.2,0,0.5-0.2,0.7c-0.2,0.2-0.5,0.2-0.8,0.1c-0.2,0-0.4-0.1-0.7,0c-0.1,0-0.2,0-0.4,0c-0.8,0.1-1.5,0.5-1.6,1.2 c0,0.9,0.6,3.6,1.3,4.9c0.2,0.4,0.5,0.6,1,0.8c0.2,0.1,0.5,0.3,0.7,0.5c0.5,0.4,0.6,0.9,0.7,1.3c0.3,1.3,1.1,2.5,2.5,3.9 c0.2,0.2,1.1,0.9,2.2,1.7c0.1,0.1,0.2,0.3,0.2,0.4c-0.1,1.3-0.1,2.1-0.2,2.5c-0.2,0.8-0.9,1.3-1.7,1.5l-7.1,2.6 c-0.8,0.2-1.5,0.5-2.1,0.9c-1.6,1-2.4,1.7-2.9,3.9c-0.4,1.7-0.5,6.3-0.5,8.3C28.6,79.4,28.6,79.7,28.6,79.9z"/><path fill="#895d3d" d="M60.5 48.9l-.6-.1.2-1.8-1 .4-.2-.6 1.5-.6c.1 0 .2 0 .3 0 .1.1.1.2.1.3L60.5 48.9zM36.3 48.5L36 46.2c0-.1 0-.2.1-.3.1-.1.2-.1.3 0l1.5.6-.2.6-1-.4.2 1.8L36.3 48.5z"/><path fill="#472b29" d="M37.6 53C37.6 53 37.6 53 37.6 53c-.1 0-.2-.1-.2-.2l.2-8.6c0-.1.1-.2.2-.2 0 0 0 0 0 0 .1 0 .2.1.2.2l-.2 8.6C37.8 52.9 37.7 53 37.6 53zM59 53c-.1 0-.2-.1-.2-.2l-.2-8.6c0-.1.1-.2.2-.2 0 0 0 0 0 0 .1 0 .2.1.2.2l.2 8.6C59.2 52.9 59.1 53 59 53 59 53 59 53 59 53zM48.3 62.1c-2.1 0-5.7-2.6-5.9-2.7-.1-.1-.1-.2-.1-.3s.2-.1.3-.1c0 0 3.9 2.8 5.8 2.6 1.9-.2 5-2.4 5-2.4.1-.1.3-.1.3.1s.1.3-.1.3c-.1.1-3.2 2.3-5.2 2.5C48.5 62.1 48.4 62.1 48.3 62.1z"/><path fill="#be7841" d="M60.7,30.8c-0.1-0.6-0.7-0.5-1.3-0.4c-1.9,0.1-2.3-0.5-6.2-2.6c-3.8-2.1-7.7-1.3-10.3,0.6 c-11.9,2.6-4.9,18-4.9,18s0-8.1,3.7-10.5c6.2,4,12.1,4.5,15.7,2.1c1.4,3.1,1.4,8.4,1.4,8.4s2.9-4.9,1.1-10.8 C59.3,34,60.9,32.6,60.7,30.8L60.7,30.8z"/><g><path fill="#472b29" d="M59.1,46.2l-0.5,0c0-0.1,0-5.1-1.2-8.1c-3.9,2.4-9.9,1.5-15.8-2.2c-3.5,2.5-3.5,10.2-3.5,10.2l-0.5,0 c0-0.3,0-8.3,3.8-10.8c0.1-0.1,0.2-0.1,0.3,0c5.9,3.7,11.9,4.5,15.7,2.1c0.1,0,0.1-0.1,0.2,0c0.1,0,0.1,0.1,0.2,0.1 C59.1,40.7,59.1,45.9,59.1,46.2z"/></g></svg>